<?xml version="1.0" encoding="utf-8"?>
<!-- Generator: Adobe Illustrator 15.0.1, SVG Export Plug-In . SVG Version: 6.00 Build 0)  -->
<!DOCTYPE svg PUBLIC "-//W3C//DTD SVG 1.1//EN" "http://www.w3.org/Graphics/SVG/1.1/DTD/svg11.dtd">
<svg version="1.1" id="Layer_1" xmlns="http://www.w3.org/2000/svg" xmlns:xlink="http://www.w3.org/1999/xlink" x="0px" y="0px"
	 width="177px" height="90px" viewBox="0 0 177 90" enable-background="new 0 0 177 90" xml:space="preserve">
<path opacity="0.36" fill="#CC0000" d="M84.604,59.933c0.787-1.576,1.278-3.35,1.278-5.223c0-6.802-6.1-12.322-13.673-12.322
	c-0.787,0-1.575,0.097-2.264,0.197c-2.36-3.747-7.082-6.31-12.394-6.31c-7.674,0-13.872,5.126-14.068,11.633
	c-6.296,2.366-10.721,7.886-10.721,14.195c0,8.575,7.967,15.476,17.805,15.476c2.95,0,5.706-0.59,8.165-1.775l-1.771,12.125
	l7.378-10.054c2.459,1.675,5.606,2.76,9.05,2.76c8.066,0,14.56-5.718,14.56-12.716C87.85,64.962,86.67,62.104,84.604,59.933z
	 M60.994,74.623C60.994,74.72,60.994,74.72,60.994,74.623l-0.196,0.097C60.896,74.72,60.896,74.72,60.994,74.623z"/>
<path fill="#625E5C" d="M124.641,0L73.093,10.055c-4.23,0-7.671,3.647-7.671,8.083v26.713c0,4.536,3.44,8.084,7.671,8.084
	l20.364-0.395l-3.246,27.995l13.969-28.192l20.068-0.395c4.229,0,7.672-3.646,7.672-8.085l0.493-35.881
	C132.313,3.648,128.87,0,124.641,0L124.641,0z"/>
<path fill="#E6454A" d="M122.574,55.202c-12.592,0-22.822,6.31-22.822,13.996c0,5.227,4.525,9.663,11.412,12.127L116.672,90
	l0.197-7.196c1.869,0.295,3.738,0.492,5.705,0.492c12.592,0,22.822-6.307,22.822-13.998
	C145.496,61.512,135.265,55.202,122.574,55.202L122.574,55.202z"/>
<path fill="#999999" d="M34.14,28.39L5.119,28.094c-2.952,0.099-5.215,2.563-5.116,5.422l6.394,34.501
	c0.1,2.959,2.559,5.224,5.412,5.126l11.312-0.099l-1.18,11.238l8.067-11.238h3.05c2.95-0.1,5.212-2.563,5.114-5.422l1.378-34.107
	C39.45,30.559,37.091,28.291,34.14,28.39z"/>
<path fill="#E6E6E6" d="M162.809,32.629C151.988,27.7,117.951,15.872,127.1,53.23c3.443,13.899,11.806,15.772,24.396,15.772
	c2.853,0,5.509,0,7.969-0.196l-0.394,16.659l6.788-17.448c5.017-1.085,8.46-3.353,9.738-7.689
	C179.729,45.542,174.516,37.851,162.809,32.629z"/>
<path d="M14.955,50.667c0,0.788-0.589,1.38-1.375,1.38c-0.789,0-1.377-0.592-1.377-1.38s0.588-1.379,1.377-1.379
	C14.366,49.189,14.955,49.879,14.955,50.667z"/>
<circle cx="19.283" cy="50.667" r="1.379"/>
<circle cx="24.99" cy="50.667" r="1.379"/>
<path d="M54.993,62.595c0,0.789-0.589,1.382-1.378,1.382c-0.785,0-1.377-0.593-1.377-1.382c0-0.788,0.592-1.38,1.377-1.38
	C54.404,61.215,54.993,61.807,54.993,62.595z M60.698,62.595c0,0.789-0.589,1.382-1.376,1.382s-1.379-0.593-1.379-1.382
	c0-0.788,0.592-1.38,1.379-1.38S60.698,61.807,60.698,62.595z M66.403,62.595c0,0.789-0.589,1.382-1.377,1.382
	c-0.786,0-1.376-0.593-1.376-1.382c0-0.788,0.59-1.38,1.376-1.38C65.717,61.215,66.403,61.807,66.403,62.595z"/>
<g>
	<path d="M115.688,71.172c0,0.789-0.589,1.379-1.377,1.379c-0.786,0-1.376-0.59-1.376-1.379s0.59-1.381,1.376-1.381
		C115.099,69.791,115.688,70.383,115.688,71.172z M121.393,71.172c0,0.789-0.589,1.379-1.377,1.379c-0.786,0-1.376-0.59-1.376-1.379
		s0.59-1.381,1.376-1.381C120.804,69.791,121.393,70.383,121.393,71.172z M127.1,71.172c0,0.789-0.589,1.379-1.376,1.379
		c-0.788,0-1.378-0.59-1.378-1.379s0.59-1.381,1.378-1.381C126.412,69.791,127.1,70.383,127.1,71.172z"/>
</g>
<g>
	<path d="M148.742,50.964c0,0.788-0.59,1.38-1.377,1.38c-0.789,0-1.377-0.592-1.377-1.38s0.588-1.381,1.377-1.381
		C148.152,49.583,148.742,50.176,148.742,50.964z M154.447,50.964c0,0.788-0.59,1.38-1.377,1.38c-0.786,0-1.377-0.592-1.377-1.38
		s0.591-1.381,1.377-1.381C153.857,49.583,154.447,50.176,154.447,50.964z M160.152,50.964c0,0.788-0.59,1.38-1.377,1.38
		c-0.786,0-1.376-0.592-1.376-1.38s0.59-1.381,1.376-1.381C159.563,49.583,160.152,50.176,160.152,50.964z"/>
</g>
<g>
	<path fill="#FFFFFF" d="M75.16,29.276V12.912h3.641v14.492h5.409v1.775h-9.05V29.276z M96.899,23.757H89.62v1.874
		c0,0.492,0.196,0.887,0.491,1.28c0.394,0.396,0.787,0.593,1.28,0.593h1.867c1.181,0,1.771-0.593,1.771-1.873h1.771
		c-0.296,2.464-1.476,3.646-3.639,3.646h-3.64c-0.984,0-1.87-0.394-2.559-1.083c-0.688-0.69-1.082-1.578-1.082-2.563v-5.421
		c0-0.987,0.394-1.874,1.082-2.563c0.688-0.691,1.574-1.086,2.559-1.086h3.64c0.982,0,1.868,0.395,2.557,1.086
		c0.689,0.688,1.082,1.576,1.082,2.563v3.548H96.899z M89.719,21.983h3.639v-1.874c0-0.493-0.195-0.887-0.491-1.282
		c-0.394-0.394-0.786-0.492-1.277-0.492c-0.493,0-0.886,0.198-1.279,0.492c-0.395,0.395-0.493,0.789-0.493,1.282v1.874H89.719z
		 M100.639,12.912h3.639v3.649h1.869v1.774h-1.869v7.295c0,0.591,0.197,1.083,0.591,1.38c0.394,0.296,0.787,0.493,1.082,0.493h0.196
		v1.773h-1.869c-0.984,0-1.869-0.394-2.557-1.083c-0.689-0.69-1.082-1.578-1.082-2.563v-7.295H98.77v-1.774h1.869V12.912z
		 M107.917,12.912h3.641v3.649c0,2.167-1.181,3.352-3.641,3.648v-1.776c1.182,0,1.771-0.688,1.87-1.773h-1.87V12.912z
		 M122.475,20.109h-1.769c-0.197-1.183-0.69-1.774-1.672-1.774c-0.592,0-1.083,0.098-1.477,0.393
		c-0.393,0.296-0.492,0.592-0.492,1.085s0.886,1.283,2.657,2.17c1.475,0.788,2.262,1.379,2.459,1.872
		c0.195,0.493,0.293,1.085,0.293,1.677c0,0.985-0.391,1.872-1.082,2.562c-0.687,0.69-1.573,1.085-2.557,1.085h-1.771
		c-2.459,0-3.64-1.182-3.64-3.647h1.869c0.099,1.181,0.688,1.872,1.673,1.872c0.688,0,1.179-0.098,1.475-0.394
		c0.296-0.297,0.491-0.594,0.491-1.184c0-0.493-0.884-1.28-2.654-2.169c-1.476-0.789-2.262-1.379-2.459-1.872
		c-0.198-0.492-0.296-1.086-0.296-1.677c0-0.985,0.393-1.873,1.082-2.563c0.688-0.689,1.574-1.084,2.559-1.084h1.769
		C121.197,16.561,122.377,17.745,122.475,20.109z M86.964,43.372c-0.098,2.466-1.378,3.648-3.64,3.648h-3.639
		c-0.984,0-1.87-0.395-2.559-1.084c-0.688-0.689-1.082-1.578-1.082-2.564v-9.068c0-0.986,0.395-1.874,1.082-2.563
		c0.688-0.689,1.574-1.083,2.559-1.083h3.639c2.262,0,3.443,1.182,3.64,3.647h-1.771c-0.099-1.182-0.787-1.874-1.771-1.874h-1.869
		c-0.491,0-0.884,0.198-1.279,0.493c-0.394,0.395-0.492,0.791-0.492,1.281v9.167c0,0.492,0.198,0.889,0.492,1.282
		c0.396,0.395,0.788,0.592,1.279,0.592h1.869c1.082,0,1.672-0.592,1.771-1.875H86.964z M88.834,47.021V30.754h3.639v5.423
		c0.099-0.591,0.296-1.085,0.589-1.38c0.296-0.296,0.69-0.493,1.28-0.493h1.869c0.983,0,1.869,0.395,2.559,1.083
		c0.688,0.692,1.082,1.58,1.082,2.566v9.068h-3.641v-9.068c0-0.495-0.196-0.889-0.492-1.283c-0.394-0.395-0.787-0.493-1.279-0.493
		c-0.491,0-0.885,0.197-1.277,0.493c-0.492,0.394-0.689,0.788-0.689,1.283v9.068H88.834z M108.803,39.825v-1.872
		c0-0.495-0.197-0.889-0.492-1.283c-0.394-0.395-0.787-0.492-1.278-0.492h-1.771c-1.082,0-1.673,0.59-1.771,1.775h-1.868
		c0.295-2.366,1.475-3.648,3.639-3.648h3.639c0.984,0,1.869,0.395,2.558,1.083c0.689,0.692,1.082,1.58,1.082,2.566v9.068h-3.64
		v-1.774c-0.098,1.184-0.785,1.774-1.868,1.774h-1.771c-0.984,0-1.869-0.395-2.558-1.084c-0.688-0.689-1.081-1.578-1.081-2.564
		c0-0.984,0.393-1.87,1.081-2.561c0.688-0.691,1.573-1.085,2.558-1.085h3.541V39.825z M108.803,41.599h-1.868
		c-0.493,0-0.886,0.197-1.279,0.493c-0.394,0.393-0.492,0.79-0.492,1.28c0,0.492,0.196,0.889,0.492,1.282
		c0.394,0.395,0.786,0.592,1.279,0.592c0.491,0,0.982-0.197,1.277-0.592c0.394-0.393,0.493-0.79,0.493-1.282v-1.773H108.803z
		 M116.181,30.754h3.639v3.649h1.87v1.774h-1.87v7.194c0,0.593,0.196,1.086,0.592,1.38c0.393,0.297,0.786,0.494,1.083,0.494h0.195
		v1.774h-1.87c-0.983,0-1.868-0.395-2.557-1.084c-0.688-0.689-1.082-1.578-1.082-2.564v-7.293h-1.87v-1.774h1.87V30.754
		L116.181,30.754z"/>
</g>
</svg>
