<?xml version="1.0" encoding="utf-8"?>
<!-- Generator: Adobe Illustrator 15.0.1, SVG Export Plug-In . SVG Version: 6.00 Build 0)  -->
<!DOCTYPE svg PUBLIC "-//W3C//DTD SVG 1.1//EN" "http://www.w3.org/Graphics/SVG/1.1/DTD/svg11.dtd">
<svg version="1.1" id="Layer_1" xmlns="http://www.w3.org/2000/svg" xmlns:xlink="http://www.w3.org/1999/xlink" x="0px" y="0px"
	 width="177px" height="90px" viewBox="0 0 177 90" enable-background="new 0 0 177 90" xml:space="preserve">
<path opacity="0.7" fill="#CC0000" enable-background="new    " d="M84.604,59.934c0.787-1.576,1.278-3.351,1.278-5.224
	c0-6.802-6.1-12.322-13.673-12.322c-0.787,0-1.575,0.097-2.264,0.197c-2.36-3.747-7.082-6.31-12.394-6.31
	c-7.674,0-13.872,5.126-14.068,11.633c-6.296,2.365-10.721,7.886-10.721,14.195c0,8.574,7.967,15.476,17.805,15.476
	c2.95,0,5.706-0.591,8.165-1.774L56.961,87.93l7.378-10.055c2.459,1.675,5.606,2.76,9.05,2.76c8.066,0,14.56-5.718,14.56-12.716
	C87.85,64.962,86.67,62.104,84.604,59.934z M60.994,74.623C60.994,74.721,60.994,74.721,60.994,74.623l-0.196,0.098
	C60.896,74.721,60.896,74.721,60.994,74.623z"/>
<path opacity="0.7" fill="#625E5C" d="M124.641,0L73.093,10.055c-4.23,0-7.671,3.647-7.671,8.083v26.713
	c0,4.536,3.44,8.084,7.671,8.084l20.364-0.396l-3.246,27.995l13.969-28.192l20.068-0.396c4.229,0,7.672-3.645,7.672-8.084
	l0.493-35.881C132.313,3.648,128.87,0,124.641,0L124.641,0z"/>
<path opacity="0.7" fill="#E6454A" d="M122.574,55.202c-12.592,0-22.822,6.31-22.822,13.995c0,5.228,4.525,9.664,11.412,12.128
	L116.672,90l0.197-7.195c1.869,0.295,3.738,0.491,5.705,0.491c12.592,0,22.822-6.308,22.822-13.998
	C145.496,61.512,135.266,55.202,122.574,55.202L122.574,55.202z"/>
<path opacity="0.7" fill="#999999" d="M34.14,28.39L5.119,28.094c-2.952,0.099-5.215,2.563-5.116,5.422l6.394,34.501
	c0.1,2.959,2.559,5.224,5.412,5.125l11.312-0.099l-1.18,11.237l8.067-11.237h3.05c2.95-0.101,5.212-2.563,5.114-5.422l1.378-34.107
	C39.45,30.559,37.091,28.291,34.14,28.39z"/>
<path opacity="0.7" fill="#E6E6E6" d="M162.809,32.629C151.988,27.7,117.951,15.872,127.1,53.23
	c3.443,13.898,11.807,15.771,24.396,15.771c2.854,0,5.509,0,7.969-0.195l-0.395,16.658l6.789-17.447
	c5.017-1.086,8.459-3.354,9.738-7.689C179.729,45.542,174.516,37.851,162.809,32.629z"/>
<path opacity="0.7" d="M14.955,50.667c0,0.788-0.589,1.38-1.375,1.38c-0.789,0-1.377-0.592-1.377-1.38s0.588-1.379,1.377-1.379
	C14.366,49.189,14.955,49.879,14.955,50.667z"/>
<circle opacity="0.7" cx="19.283" cy="50.667" r="1.379"/>
<circle opacity="0.7" cx="24.99" cy="50.667" r="1.379"/>
<path opacity="0.7" d="M54.993,62.596c0,0.788-0.589,1.381-1.378,1.381c-0.785,0-1.377-0.593-1.377-1.381
	c0-0.789,0.592-1.381,1.377-1.381C54.404,61.215,54.993,61.807,54.993,62.596z M60.698,62.596c0,0.788-0.589,1.381-1.376,1.381
	c-0.787,0-1.379-0.593-1.379-1.381c0-0.789,0.592-1.381,1.379-1.381C60.109,61.215,60.698,61.807,60.698,62.596z M66.403,62.596
	c0,0.788-0.589,1.381-1.377,1.381c-0.786,0-1.376-0.593-1.376-1.381c0-0.789,0.59-1.381,1.376-1.381
	C65.717,61.215,66.403,61.807,66.403,62.596z"/>
<g opacity="0.7">
	<path d="M115.688,71.172c0,0.789-0.588,1.379-1.377,1.379c-0.785,0-1.375-0.59-1.375-1.379s0.59-1.381,1.375-1.381
		C115.1,69.791,115.688,70.383,115.688,71.172z M121.393,71.172c0,0.789-0.588,1.379-1.377,1.379c-0.785,0-1.375-0.59-1.375-1.379
		s0.59-1.381,1.375-1.381C120.805,69.791,121.393,70.383,121.393,71.172z M127.1,71.172c0,0.789-0.588,1.379-1.375,1.379
		c-0.789,0-1.379-0.59-1.379-1.379s0.59-1.381,1.379-1.381C126.412,69.791,127.1,70.383,127.1,71.172z"/>
</g>
<g opacity="0.7">
	<path d="M148.742,50.964c0,0.788-0.59,1.38-1.377,1.38c-0.789,0-1.377-0.592-1.377-1.38s0.588-1.381,1.377-1.381
		C148.152,49.583,148.742,50.176,148.742,50.964z M154.447,50.964c0,0.788-0.59,1.38-1.377,1.38c-0.786,0-1.377-0.592-1.377-1.38
		s0.591-1.381,1.377-1.381C153.857,49.583,154.447,50.176,154.447,50.964z M160.152,50.964c0,0.788-0.59,1.38-1.377,1.38
		s-1.377-0.592-1.377-1.38s0.59-1.381,1.377-1.381S160.152,50.176,160.152,50.964z"/>
</g>
<g>
	<path fill="#FFFFFF" d="M75.16,29.276V12.912h3.641v14.492h5.409v1.775h-9.05V29.276z M96.898,23.757H89.62v1.874
		c0,0.492,0.196,0.887,0.491,1.28c0.394,0.396,0.787,0.593,1.279,0.593h1.867c1.182,0,1.771-0.593,1.771-1.873H96.8
		c-0.296,2.464-1.476,3.646-3.639,3.646h-3.64c-0.984,0-1.871-0.394-2.56-1.083c-0.688-0.69-1.082-1.578-1.082-2.563V20.21
		c0-0.987,0.394-1.874,1.082-2.563c0.688-0.691,1.574-1.086,2.56-1.086h3.64c0.981,0,1.868,0.395,2.557,1.086
		c0.689,0.688,1.082,1.576,1.082,2.563v3.548L96.898,23.757L96.898,23.757z M89.719,21.983h3.639v-1.874
		c0-0.493-0.194-0.887-0.49-1.282c-0.395-0.394-0.786-0.492-1.277-0.492c-0.492,0-0.886,0.198-1.279,0.492
		c-0.395,0.395-0.492,0.789-0.492,1.282v1.874H89.719z M100.639,12.912h3.639v3.649h1.869v1.774h-1.869v7.295
		c0,0.591,0.197,1.083,0.592,1.38c0.395,0.296,0.787,0.493,1.082,0.493h0.195v1.773h-1.869c-0.983,0-1.868-0.394-2.557-1.083
		c-0.688-0.69-1.082-1.578-1.082-2.563v-7.295H98.77v-1.774h1.869V12.912z M107.917,12.912h3.642v3.649
		c0,2.167-1.182,3.352-3.642,3.648v-1.776c1.183,0,1.771-0.688,1.87-1.773h-1.87V12.912z M122.475,20.109h-1.769
		c-0.197-1.183-0.69-1.774-1.672-1.774c-0.593,0-1.083,0.098-1.478,0.393c-0.393,0.296-0.492,0.592-0.492,1.085
		s0.887,1.283,2.658,2.17c1.475,0.788,2.262,1.379,2.459,1.872c0.194,0.493,0.293,1.085,0.293,1.677
		c0,0.985-0.392,1.872-1.082,2.562c-0.688,0.69-1.574,1.085-2.558,1.085h-1.771c-2.459,0-3.641-1.182-3.641-3.647h1.869
		c0.1,1.181,0.688,1.872,1.673,1.872c0.688,0,1.179-0.098,1.476-0.394c0.295-0.297,0.49-0.594,0.49-1.184
		c0-0.493-0.884-1.28-2.654-2.169c-1.475-0.789-2.262-1.379-2.459-1.872c-0.197-0.492-0.295-1.086-0.295-1.677
		c0-0.985,0.393-1.873,1.082-2.563c0.688-0.689,1.574-1.084,2.559-1.084h1.77C121.197,16.561,122.377,17.745,122.475,20.109z
		 M86.964,43.372c-0.098,2.466-1.378,3.647-3.64,3.647h-3.639c-0.984,0-1.87-0.395-2.559-1.084
		c-0.688-0.688-1.082-1.578-1.082-2.563v-9.068c0-0.986,0.395-1.874,1.082-2.563c0.688-0.689,1.574-1.083,2.559-1.083h3.639
		c2.262,0,3.443,1.182,3.64,3.647h-1.771c-0.099-1.182-0.787-1.874-1.771-1.874h-1.869c-0.491,0-0.884,0.198-1.279,0.493
		c-0.394,0.395-0.492,0.791-0.492,1.281v9.167c0,0.492,0.198,0.889,0.492,1.282c0.396,0.395,0.788,0.592,1.279,0.592h1.869
		c1.082,0,1.672-0.592,1.771-1.875L86.964,43.372L86.964,43.372z M88.834,47.021V30.754h3.639v5.423
		c0.1-0.591,0.297-1.085,0.59-1.38c0.295-0.296,0.689-0.493,1.279-0.493h1.869c0.982,0,1.869,0.395,2.559,1.083
		c0.688,0.692,1.082,1.58,1.082,2.566v9.068h-3.641v-9.068c0-0.495-0.195-0.889-0.492-1.283c-0.394-0.395-0.787-0.493-1.279-0.493
		c-0.49,0-0.885,0.197-1.276,0.493c-0.492,0.394-0.688,0.788-0.688,1.283v9.068H88.834z M108.803,39.825v-1.872
		c0-0.495-0.197-0.889-0.492-1.283c-0.394-0.395-0.787-0.492-1.277-0.492h-1.771c-1.082,0-1.673,0.59-1.771,1.775h-1.868
		c0.295-2.366,1.475-3.648,3.639-3.648h3.639c0.984,0,1.869,0.395,2.559,1.083c0.689,0.692,1.082,1.58,1.082,2.566v9.067H108.9
		v-1.773c-0.098,1.184-0.784,1.773-1.867,1.773h-1.771c-0.984,0-1.869-0.395-2.558-1.084c-0.688-0.688-1.081-1.578-1.081-2.563
		c0-0.984,0.393-1.87,1.081-2.561s1.573-1.085,2.558-1.085h3.541V39.825z M108.803,41.599h-1.867c-0.494,0-0.887,0.197-1.279,0.493
		c-0.395,0.393-0.492,0.79-0.492,1.28c0,0.492,0.195,0.889,0.492,1.282c0.394,0.395,0.785,0.592,1.279,0.592
		c0.49,0,0.981-0.197,1.276-0.592c0.394-0.393,0.493-0.79,0.493-1.282v-1.773H108.803z M116.182,30.754h3.639v3.649h1.869v1.774
		h-1.869v7.194c0,0.593,0.195,1.086,0.592,1.38c0.393,0.297,0.785,0.494,1.083,0.494h0.194v1.774h-1.869
		c-0.983,0-1.868-0.396-2.557-1.084c-0.688-0.689-1.082-1.579-1.082-2.564v-7.293h-1.871v-1.774h1.871V30.754L116.182,30.754z"/>
</g>
</svg>
