<?xml version="1.0" encoding="utf-8"?>
<!-- Generator: Adobe Illustrator 15.0.1, SVG Export Plug-In . SVG Version: 6.00 Build 0)  -->
<!DOCTYPE svg PUBLIC "-//W3C//DTD SVG 1.1//EN" "http://www.w3.org/Graphics/SVG/1.1/DTD/svg11.dtd">
<svg version="1.1" id="Layer_1" xmlns="http://www.w3.org/2000/svg" xmlns:xlink="http://www.w3.org/1999/xlink" x="0px" y="0px"
	 width="28px" height="28px" viewBox="0 0 28 28" enable-background="new 0 0 28 28" xml:space="preserve">
<path fill="#C41610" d="M14,0C6.268,0,0,6.268,0,14c0,7.732,6.268,14,14,14c7.732,0,14-6.268,14-14C28,6.268,21.732,0,14,0z
	 M17.561,14.615h-2.102v7.615v0.002h-3.153v-7.616h-1.574v-2.625h1.574v-1.576C12.306,8.273,13.195,7,15.721,7h2.104v2.625H16.51
	c-0.982,0-1.048,0.366-1.048,1.051l-0.003,1.314h2.381L17.561,14.615z"/>
</svg>
