<?xml version="1.0" encoding="utf-8"?>
<!-- Generator: Adobe Illustrator 15.0.1, SVG Export Plug-In . SVG Version: 6.00 Build 0)  -->
<!DOCTYPE svg PUBLIC "-//W3C//DTD SVG 1.1//EN" "http://www.w3.org/Graphics/SVG/1.1/DTD/svg11.dtd">
<svg version="1.1" id="Capa_1" xmlns="http://www.w3.org/2000/svg" xmlns:xlink="http://www.w3.org/1999/xlink" x="0px" y="0px"
	 width="27px" height="27px" viewBox="0 0 27 27" enable-background="new 0 0 27 27" xml:space="preserve">
<g>
	<path fill="#C41610" d="M14.943,11.854v-0.032c-0.006,0.011-0.016,0.021-0.021,0.032H14.943z"/>
	<path fill="#C41610" d="M13.5,0C6.044,0,0,6.044,0,13.5S6.044,27,13.5,27S27,20.956,27,13.5S20.956,0,13.5,0z M9.931,20.152H6.705
		v-9.706h3.226V20.152z M8.319,9.122H8.298c-1.083,0-1.784-0.745-1.784-1.677c0-0.951,0.722-1.676,1.826-1.676
		s1.782,0.724,1.805,1.676C10.145,8.377,9.444,9.122,8.319,9.122z M21.566,20.15h-3.228v-5.191c0-1.304-0.466-2.194-1.634-2.194
		c-0.893,0-1.421,0.599-1.655,1.18c-0.085,0.208-0.106,0.497-0.106,0.788v5.42h-3.228c0,0,0.043-8.795,0-9.706h3.228v1.375
		c0.43-0.66,1.193-1.603,2.908-1.603c2.123,0,3.715,1.387,3.715,4.367V20.15z"/>
</g>
</svg>
