<?xml version="1.0" encoding="utf-8"?>
<!-- Generator: Adobe Illustrator 15.0.1, SVG Export Plug-In . SVG Version: 6.00 Build 0)  -->
<!DOCTYPE svg PUBLIC "-//W3C//DTD SVG 1.1//EN" "http://www.w3.org/Graphics/SVG/1.1/DTD/svg11.dtd">
<svg version="1.1" id="Layer_1" xmlns="http://www.w3.org/2000/svg" xmlns:xlink="http://www.w3.org/1999/xlink" x="0px" y="0px"
	 width="52px" height="52px" viewBox="0 0 52 52" enable-background="new 0 0 52 52" xml:space="preserve">
<g>
	<path fill="#C4161C" d="M2.374,0.001C1.091-0.027,0.028,0.991,0,2.275c0,0.032,0,0.065,0,0.099v47.252
		c-0.027,1.283,0.991,2.346,2.275,2.373C2.308,52,2.34,52,2.374,51.999h47.251c1.284,0.028,2.347-0.99,2.375-2.274
		c0-0.032,0-0.065,0-0.099V2.374c0.027-1.283-0.992-2.346-2.275-2.373c-0.032-0.001-0.066-0.001-0.1,0H2.374z"/>
	<path fill="#FFFFFF" d="M11.418,9.901c0.005,0.508-0.083,1.013-0.259,1.489c-0.168,0.445-0.432,0.849-0.773,1.181
		c-0.36,0.343-0.788,0.605-1.256,0.771c-0.572,0.192-1.174,0.286-1.777,0.273H6.37v3.314H4.474V6.615h2.935
		C7.99,6.606,8.568,6.681,9.13,6.834c0.458,0.125,0.885,0.343,1.256,0.638c0.337,0.277,0.602,0.631,0.773,1.033
		C11.34,8.947,11.428,9.424,11.418,9.901z M9.445,10.035c0.003-0.254-0.04-0.506-0.126-0.744C9.238,9.07,9.106,8.873,8.933,8.715
		C8.747,8.548,8.526,8.423,8.287,8.351c-0.3-0.092-0.613-0.133-0.927-0.127H6.37v3.784h1.046c0.294,0.005,0.586-0.043,0.864-0.14
		c0.237-0.085,0.454-0.221,0.632-0.4c0.174-0.178,0.308-0.391,0.393-0.625C9.398,10.584,9.447,10.311,9.445,10.035z"/>
	<path fill="#FFFFFF" d="M20.281,11.651c0.008,0.734-0.09,1.467-0.289,2.177c-0.172,0.615-0.479,1.187-0.898,1.67
		c-0.421,0.473-0.948,0.839-1.538,1.067c-0.728,0.266-1.5,0.393-2.275,0.372h-2.556V6.615h2.963
		c0.681-0.013,1.359,0.087,2.008,0.295c0.536,0.185,1.018,0.498,1.404,0.913c0.405,0.448,0.701,0.984,0.864,1.565
		C20.18,10.124,20.286,10.886,20.281,11.651z M18.258,11.776c0.004-0.501-0.041-1.002-0.133-1.495
		c-0.071-0.396-0.222-0.774-0.443-1.11c-0.205-0.307-0.492-0.55-0.828-0.702c-0.409-0.17-0.85-0.251-1.292-0.238h-0.956v7.085h0.843
		c0.795,0.056,1.572-0.258,2.106-0.85C18.095,13.679,18.343,12.728,18.258,11.776z"/>
	<path fill="#FFFFFF" d="M24.01,8.258v2.858h3.784v1.595H24.01v4.213h-1.911V6.615h5.913v1.643H24.01z"/>
	<path fill="#FFFFFF" d="M8.237,23.532c0.008,0.244-0.047,0.485-0.162,0.702c-0.107,0.197-0.262,0.366-0.449,0.491
		c-0.214,0.14-0.452,0.239-0.702,0.295c-0.293,0.067-0.593,0.101-0.892,0.098H5.597l-0.421-0.041l-0.38-0.057l-0.323-0.069v-0.704
		c0.228,0.086,0.462,0.149,0.703,0.19c0.297,0.049,0.597,0.071,0.898,0.07c0.208,0.003,0.416-0.016,0.619-0.056
		c0.149-0.029,0.292-0.086,0.421-0.169c0.102-0.068,0.185-0.163,0.239-0.273c0.052-0.115,0.077-0.24,0.077-0.365
		c0.005-0.141-0.04-0.276-0.126-0.387c-0.093-0.112-0.204-0.208-0.33-0.28c-0.148-0.092-0.303-0.168-0.463-0.232l-0.506-0.273
		c-0.182-0.075-0.36-0.154-0.534-0.238c-0.167-0.081-0.322-0.183-0.463-0.303c-0.135-0.115-0.248-0.257-0.33-0.415
		c-0.087-0.173-0.131-0.366-0.126-0.562c0.001-0.193,0.042-0.385,0.12-0.562c0.082-0.189,0.207-0.357,0.364-0.49
		c0.19-0.155,0.407-0.272,0.64-0.346c0.302-0.094,0.618-0.139,0.934-0.133H6.91l0.33,0.035l0.331,0.056l0.302,0.063v0.702
		C7.658,20.22,7.44,20.173,7.219,20.14c-0.209-0.031-0.42-0.049-0.632-0.05c-0.335-0.032-0.673,0.036-0.969,0.197
		c-0.191,0.133-0.304,0.351-0.302,0.583c-0.003,0.139,0.042,0.276,0.126,0.386c0.092,0.116,0.204,0.214,0.33,0.289
		c0.147,0.09,0.302,0.168,0.463,0.23l0.534,0.212c0.183,0.074,0.361,0.154,0.534,0.237c0.167,0.084,0.323,0.188,0.463,0.311
		c0.135,0.118,0.248,0.261,0.33,0.421C8.19,23.133,8.238,23.332,8.237,23.532z"/>
	<path fill="#FFFFFF" d="M13.083,25.027h-0.751v-2.556h-2.325v2.541H9.256v-5.519h0.751v2.338h2.325v-2.338h0.751V25.027z"/>
	<path fill="#FFFFFF" d="M18.258,25.027H17.45l-0.386-1.208h-2.317l-0.386,1.208h-0.766l1.854-5.533h1.032L18.258,25.027z
		 M16.854,23.174l-0.934-2.957l-0.941,2.957H16.854z"/>
	<path fill="#FFFFFF" d="M22.766,25.027h-0.849l-0.85-1.77c-0.052-0.118-0.116-0.23-0.19-0.337
		c-0.059-0.081-0.129-0.152-0.211-0.211c-0.074-0.052-0.158-0.09-0.246-0.112c-0.101-0.012-0.202-0.012-0.302,0h-0.358v2.465h-0.723
		v-5.568h1.481c0.28-0.006,0.559,0.029,0.829,0.104c0.208,0.059,0.401,0.158,0.569,0.296c0.144,0.122,0.254,0.279,0.323,0.457
		c0.072,0.19,0.107,0.393,0.105,0.597c0,0.167-0.025,0.332-0.078,0.491c-0.049,0.152-0.125,0.295-0.225,0.421
		c-0.104,0.129-0.229,0.238-0.372,0.324c-0.158,0.094-0.332,0.163-0.513,0.203c0.155,0.054,0.292,0.151,0.394,0.28
		c0.127,0.165,0.238,0.345,0.33,0.534L22.766,25.027z M21.559,21.019c0.02-0.254-0.082-0.502-0.274-0.667
		c-0.228-0.16-0.502-0.236-0.779-0.219h-0.703v1.826h0.562c0.162,0.001,0.322-0.021,0.478-0.063
		c0.133-0.035,0.257-0.098,0.365-0.183c0.099-0.079,0.178-0.181,0.232-0.295C21.509,21.296,21.549,21.158,21.559,21.019z"/>
	<path fill="#FFFFFF" d="M27.078,25.027h-3.146v-5.533h3.146v0.632h-2.395v1.713h2.296v0.633h-2.296v1.902h2.395V25.027z"/>
	<path fill="#FFFFFF" d="M7.599,28.139H5.253v1.797h2.226v0.633H5.253v2.437H4.481v-5.512h3.118V28.139z"/>
	<path fill="#FFFFFF" d="M12.915,30.196c0.008,0.434-0.051,0.868-0.175,1.285c-0.1,0.325-0.263,0.627-0.478,0.891
		c-0.189,0.229-0.43,0.41-0.703,0.527c-0.564,0.241-1.203,0.241-1.768,0c-0.262-0.127-0.486-0.317-0.653-0.555
		c-0.184-0.268-0.316-0.568-0.386-0.885c-0.089-0.387-0.132-0.783-0.127-1.181c-0.007-0.432,0.052-0.862,0.176-1.277
		c0.094-0.333,0.255-0.644,0.47-0.912c0.188-0.229,0.43-0.411,0.703-0.527c0.266-0.114,0.553-0.172,0.843-0.169
		c0.32-0.005,0.637,0.062,0.926,0.197c0.263,0.127,0.49,0.317,0.66,0.555c0.188,0.267,0.321,0.567,0.394,0.885
		C12.881,29.412,12.921,29.804,12.915,30.196z M12.128,30.251c0.001-0.298-0.025-0.597-0.077-0.891
		c-0.04-0.246-0.121-0.483-0.239-0.702c-0.102-0.185-0.25-0.339-0.429-0.45c-0.191-0.111-0.41-0.168-0.632-0.16
		c-0.215-0.007-0.428,0.051-0.61,0.167c-0.175,0.12-0.32,0.278-0.421,0.464c-0.119,0.22-0.202,0.457-0.246,0.702
		c-0.054,0.277-0.08,0.561-0.077,0.844c-0.002,0.298,0.024,0.597,0.077,0.891c0.04,0.246,0.121,0.484,0.238,0.703
		c0.1,0.183,0.245,0.337,0.421,0.448c0.189,0.113,0.406,0.168,0.625,0.162c0.214,0.021,0.43-0.024,0.618-0.127
		c0.178-0.117,0.325-0.276,0.429-0.464c0.119-0.219,0.201-0.455,0.246-0.702c0.055-0.281,0.081-0.568,0.077-0.856V30.251z"/>
	<path fill="#FFFFFF" d="M17.591,33.005h-0.85l-0.829-1.77c-0.049-0.118-0.111-0.231-0.182-0.338
		c-0.059-0.081-0.13-0.152-0.211-0.21c-0.074-0.052-0.157-0.091-0.245-0.113c-0.101-0.012-0.202-0.012-0.302,0h-0.358v2.431h-0.751
		v-5.512h1.481c0.28-0.006,0.559,0.029,0.829,0.105c0.208,0.057,0.402,0.157,0.568,0.294c0.144,0.122,0.255,0.279,0.323,0.457
		c0.072,0.19,0.107,0.393,0.105,0.597c0.001,0.167-0.025,0.332-0.077,0.491c-0.05,0.152-0.126,0.295-0.225,0.422
		c-0.104,0.128-0.23,0.237-0.372,0.322c-0.159,0.095-0.333,0.164-0.513,0.203c0.155,0.055,0.292,0.152,0.393,0.281
		c0.128,0.166,0.239,0.345,0.33,0.533L17.591,33.005z M16.383,28.995c0.02-0.253-0.082-0.501-0.274-0.667
		c-0.228-0.159-0.501-0.235-0.779-0.218h-0.703v1.825h0.611c0.162,0.001,0.322-0.021,0.478-0.063
		c0.132-0.036,0.257-0.098,0.365-0.183c0.099-0.08,0.178-0.181,0.231-0.295c0.052-0.12,0.079-0.249,0.078-0.38L16.383,28.995z"/>
	<path fill="#FFFFFF" d="M22.472,33.005h-0.703l-0.112-3.448l-0.049-1.327l-0.26,0.772l-0.815,2.197h-0.52l-0.779-2.106L18.96,28.25
		v1.405l-0.134,3.35h-0.702l0.273-5.533h0.892l0.744,2.105l0.238,0.702l0.232-0.702l0.787-2.105h0.92L22.472,33.005z"/>
	<path fill="#FFFFFF" d="M26.896,31.53c0.008,0.244-0.048,0.485-0.161,0.701c-0.109,0.198-0.263,0.367-0.45,0.492
		c-0.214,0.14-0.453,0.239-0.702,0.295c-0.292,0.068-0.592,0.101-0.892,0.099h-0.435l-0.421-0.043l-0.365-0.069l-0.323-0.07v-0.703
		c0.229,0.085,0.463,0.148,0.702,0.19c0.297,0.048,0.599,0.072,0.899,0.07c0.208,0.004,0.414-0.016,0.618-0.058
		c0.15-0.028,0.293-0.084,0.422-0.168c0.102-0.067,0.185-0.163,0.238-0.273c0.052-0.114,0.078-0.238,0.077-0.364
		c0.004-0.141-0.041-0.277-0.126-0.388c-0.092-0.111-0.204-0.207-0.33-0.28c-0.148-0.09-0.303-0.167-0.464-0.232l-0.533-0.209
		c-0.183-0.076-0.36-0.155-0.534-0.24c-0.167-0.08-0.322-0.182-0.464-0.301c-0.135-0.117-0.247-0.257-0.33-0.415
		c-0.087-0.174-0.131-0.366-0.126-0.562c0.001-0.193,0.042-0.385,0.119-0.562c0.083-0.19,0.208-0.358,0.366-0.491
		c0.189-0.155,0.406-0.271,0.639-0.345c0.307-0.126,0.632-0.2,0.962-0.217h0.302l0.33,0.034l0.331,0.057l0.301,0.063v0.702
		c-0.214-0.062-0.432-0.108-0.652-0.142c-0.204-0.019-0.408-0.023-0.611-0.013c-0.333-0.025-0.666,0.051-0.956,0.217
		c-0.19,0.133-0.304,0.352-0.302,0.583c-0.003,0.14,0.042,0.275,0.126,0.386c0.093,0.115,0.204,0.213,0.33,0.288
		c0.147,0.091,0.303,0.168,0.464,0.231l0.533,0.211c0.183,0.075,0.361,0.155,0.534,0.239c0.167,0.082,0.323,0.187,0.464,0.309
		c0.135,0.118,0.247,0.262,0.33,0.422C26.877,31.15,26.908,31.34,26.896,31.53z"/>
	<path fill="#FFFFFF" d="M46.733,33.44c0,0,0.744,0.962,1.145-0.491c0.399-1.455,2.106-10.19,2.106-10.19s-8.139,2.106-9.551,2.612
		c-1.411,0.506-0.436,1.18-0.436,1.18l2.542,1.77c-1.214,1.405-11.867,17.633-40.159,17.683c0,0,24.704,5.133,42.835-15.309
		L46.733,33.44z"/>
</g>
</svg>
