<?xml version="1.0" encoding="utf-8"?>
<!-- Generator: Adobe Illustrator 15.0.1, SVG Export Plug-In . SVG Version: 6.00 Build 0)  -->
<!DOCTYPE svg PUBLIC "-//W3C//DTD SVG 1.1//EN" "http://www.w3.org/Graphics/SVG/1.1/DTD/svg11.dtd">
<svg version="1.1" id="Layer_1" xmlns="http://www.w3.org/2000/svg" xmlns:xlink="http://www.w3.org/1999/xlink" x="0px" y="0px"
	 width="28px" height="28px" viewBox="0 0 28 28" enable-background="new 0 0 28 28" xml:space="preserve">
<path fill="#C41610" d="M14,0C6.267,0,0,6.269,0,14c0,7.732,6.268,14,14,14c7.732,0,14-6.268,14-14C28,6.269,21.732,0,14,0z
	 M21.053,11.143l0.01,0.429c0,4.375-3.434,9.422-9.708,9.422c-1.928,0-3.72-0.549-5.231-1.488c0.268,0.03,0.539,0.047,0.815,0.047
	c1.599,0,3.07-0.529,4.238-1.418c-1.494-0.025-2.754-0.982-3.188-2.299c0.209,0.039,0.422,0.059,0.642,0.059
	c0.311,0,0.612-0.041,0.898-0.115c-1.561-0.305-2.737-1.643-2.737-3.247V12.49c0.461,0.25,0.986,0.397,1.546,0.415
	C7.422,12.313,6.82,11.298,6.82,10.15c0-0.607,0.168-1.175,0.461-1.663c1.682,2.002,4.197,3.321,7.032,3.459
	c-0.058-0.242-0.088-0.495-0.088-0.755c0-1.829,1.528-3.31,3.412-3.31c0.98,0,1.867,0.401,2.489,1.044
	c0.776-0.148,1.507-0.424,2.167-0.804c-0.255,0.774-0.795,1.422-1.501,1.833c0.69-0.08,1.349-0.258,1.96-0.522
	C22.295,10.097,21.717,10.679,21.053,11.143z"/>
</svg>
