<?xml version="1.0" encoding="utf-8"?>
<!-- Generator: Adobe Illustrator 15.0.1, SVG Export Plug-In . SVG Version: 6.00 Build 0)  -->
<!DOCTYPE svg PUBLIC "-//W3C//DTD SVG 1.1//EN" "http://www.w3.org/Graphics/SVG/1.1/DTD/svg11.dtd">
<svg version="1.1" id="Layer_1" xmlns="http://www.w3.org/2000/svg" xmlns:xlink="http://www.w3.org/1999/xlink" x="0px" y="0px"
	 width="28px" height="28px" viewBox="0 0 28 28" enable-background="new 0 0 28 28" xml:space="preserve">
<g>
	<path fill="#C41610" d="M12.205,15.756v2.624c-0.087,0.077-0.182,0.138-0.286,0.187c-0.103,0.05-0.191,0.072-0.257,0.072
		c-0.086,0-0.15-0.016-0.19-0.054c-0.036-0.037-0.056-0.094-0.056-0.177v-2.65h-0.921v2.891c0,0.205,0.055,0.358,0.162,0.461
		c0.108,0.104,0.268,0.156,0.481,0.156c0.174,0,0.352-0.037,0.535-0.111c0.186-0.071,0.362-0.18,0.533-0.319v0.379h0.921
		c0,0,0-3.457-0.001-3.458H12.205z"/>
	<polygon fill="#C41610" points="7.868,15.504 8.752,15.504 8.752,19.164 9.606,19.164 9.606,15.504 10.49,15.504 10.49,14.88 
		7.868,14.88 	"/>
	<path fill="#C41610" d="M15.727,15.979c-0.141,0-0.281,0.024-0.42,0.076c-0.136,0.051-0.265,0.127-0.39,0.223V14.88h-0.919v4.337
		h0.919v-0.244c0.119,0.098,0.25,0.17,0.39,0.217c0.139,0.047,0.297,0.068,0.477,0.068c0.27,0,0.477-0.059,0.617-0.181
		c0.143-0.122,0.215-0.294,0.215-0.521v-1.777c0-0.262-0.076-0.461-0.229-0.598C16.234,16.046,16.016,15.979,15.727,15.979z
		 M15.678,18.468c0,0.101-0.027,0.175-0.08,0.22s-0.134,0.067-0.246,0.067l-0.22-0.034c-0.069-0.021-0.142-0.061-0.216-0.113v-1.992
		l0.188-0.098l0.193-0.031c0.124,0,0.217,0.029,0.285,0.082c0.064,0.057,0.096,0.138,0.096,0.246V18.468z"/>
	<path fill="#C41610" d="M13.649,10.502c0.148,0,0.266-0.029,0.353-0.085c0.087-0.057,0.131-0.135,0.131-0.235V8.164
		c0-0.081-0.044-0.145-0.133-0.197c-0.088-0.05-0.205-0.074-0.351-0.074c-0.133,0-0.241,0.024-0.325,0.074
		c-0.083,0.051-0.125,0.116-0.125,0.197h-0.001v2.018c0,0.102,0.04,0.18,0.117,0.236C13.393,10.475,13.505,10.502,13.649,10.502z"/>
	<path fill="#C41610" d="M19.209,18.205c0,0.195-0.031,0.32-0.089,0.379c-0.06,0.057-0.161,0.086-0.31,0.086
		c-0.142,0-0.242-0.033-0.302-0.102c-0.058-0.067-0.086-0.188-0.086-0.362v-0.625h1.697h0.001v-0.845
		c0-0.314-0.107-0.555-0.326-0.723c-0.219-0.166-0.531-0.25-0.938-0.25c-0.398,0-0.721,0.09-0.971,0.271
		c-0.253,0.182-0.379,0.418-0.379,0.704v1.488c0,0.318,0.115,0.57,0.344,0.75c0.228,0.183,0.541,0.273,0.938,0.273
		c0.442,0,0.774-0.086,0.997-0.257c0.227-0.173,0.335-0.429,0.335-0.769v-0.17h-0.913V18.205z"/>
	<path fill="#C41610" d="M14,0C6.267,0,0,6.269,0,14c0,7.73,6.268,14,14,14c7.732,0,14-6.27,14-14C28,6.269,21.732,0,14,0z
		 M16.016,7.013h0.825v3.263c0,0.099,0.019,0.172,0.054,0.217c0.033,0.046,0.09,0.068,0.168,0.068c0.061,0,0.138-0.03,0.231-0.09
		c0.091-0.06,0.177-0.136,0.254-0.228V7.012h0.827v4.258h-0.827v-0.472c-0.151,0.173-0.31,0.306-0.478,0.397
		c-0.164,0.089-0.322,0.178-0.479,0.178c-0.191,0-0.335-0.106-0.431-0.233c-0.095-0.126-0.146-0.316-0.146-0.57V7.013z
		 M12.255,8.061c0-0.32,0.132-0.572,0.394-0.761c0.262-0.188,0.615-0.281,1.057-0.281c0.404,0,0.734,0.098,0.991,0.297
		c0.257,0.199,0.386,0.456,0.386,0.769v2.123c0,0.352-0.126,0.626-0.378,0.827c-0.253,0.2-0.6,0.341-1.043,0.341
		c-0.426,0-0.768-0.145-1.024-0.352c-0.256-0.207-0.383-0.483-0.383-0.833V8.061z M9.803,5.254l0.677,2.453h0.066l0.646-2.452h1.062
		l-1.215,3.587v2.544H9.995v-2.43L8.751,5.254H9.803z M21.872,18.232c0,1.525-1.288,2.764-2.876,2.764H9.004
		c-1.589,0-2.876-1.238-2.876-2.764v-2.336c0-1.525,1.287-2.764,2.876-2.764h9.992c1.588,0,2.876,1.238,2.876,2.764V18.232z"/>
</g>
<path fill="#FFFFFF" d="M18.859,16.341c-0.142,0-0.242,0.03-0.305,0.091c-0.061,0.06-0.091,0.158-0.091,0.297v0.334h0.785V16.73
	c0-0.14-0.032-0.238-0.093-0.297C19.096,16.371,18.994,16.341,18.859,16.341z"/>
</svg>
